<svg width="418" height="421" viewBox="0 0 418 421" fill="none" xmlns="http://www.w3.org/2000/svg">
<mask id="path-1-outside-1_27_1671" maskUnits="userSpaceOnUse" x="0" y="0" width="418" height="421" fill="black">
<rect fill="white" width="418" height="421"/>
<path d="M228.8 6L232.101 9.2998C234.9 12.0996 235.4 13.2997 235.4 17.3994C235.4 33.2994 240.3 62.1998 245.5 77.7998C254.5 104.4 264.701 120.699 285.101 141.699C295.401 152.099 295.3 151.6 285.9 156.8C260.703 170.598 248.703 176.898 247.601 176.899C244.601 176.899 220.6 148.2 214.2 136.8C211.7 132.4 211.2 132 207.9 132C204.5 132 204.2 132.3 200.4 139.3C187.9 162 162 187.8 137.601 202.1C130.601 206.1 130 206.7 130 209.6C130 212.4 130.701 213.099 137.101 216.899C161.2 231.299 186.4 256.6 200.3 280.6C204.5 287.8 204.901 288.2 208.101 288.1C211.3 288.1 211.7 287.699 216.2 280.1C225.4 264.3 240.3 247.2 257.4 233C291 205.3 335.9 187.899 385.3 183.699C403 182.299 403.9 182.4 407.5 185.6L410.7 188.399L411 207.899C411.5 236.099 411.1 236.699 391.101 237.699C365.401 238.999 338.5 246.199 316.7 257.399C301.5 265.199 293.4 271.199 281.3 283.199C266.5 298.099 257.2 312.3 249.2 332.6C242.5 349.699 236.5 379.899 236.5 397.199C236.5 405.299 234.9 410.2 231.5 412.6H231.4C229.5 414 226 414.199 208.101 414.199C180.201 414.199 181.5 415.2 179.8 393.6C176.9 356.3 167.3 326.3 150.3 301C143.5 291 127.9 275.099 117.5 267.699C93.8001 250.799 59.8002 239.599 26.9004 237.899C12.2006 237.099 11.7005 236.999 8.60059 233.899L6 231.3V189L8.90039 186.199C11.7001 183.6 12.6006 183.4 23.2998 182.6C59.8996 180 91.3999 169.8 118.3 152C128.6 145.1 144.9 128.5 152.3 117.5C168.2 93.6001 177.4 63.6998 179.8 27.5C180.7 11.9 181.6 9.29922 186.2 7.19922C187.801 6.39927 195.601 6 208.7 6H228.8ZM340 361.899C347.3 346.2 365.4 336.5 380.3 340.399C392.9 343.699 402 351.299 407.7 363.199C410.3 368.799 410.8 370.8 410.7 376.6C410.5 392.6 399.9 406.8 384.3 412.3H384.4C365.8 418.8 344.3 406.899 338 386.399C335.3 377.7 335.9 370.599 340 361.899Z"/>
</mask>
<path d="M228.8 6L233.042 1.75673C231.917 0.631897 230.391 0 228.8 0V6ZM232.101 9.2998L236.343 5.0572L236.343 5.05654L232.101 9.2998ZM235.4 17.3994H241.4V17.3994L235.4 17.3994ZM245.5 77.7998L239.808 79.6972C239.811 79.7057 239.814 79.7143 239.816 79.7228L245.5 77.7998ZM285.101 141.699L280.797 145.88C280.81 145.894 280.824 145.908 280.837 145.921L285.101 141.699ZM285.9 156.8L288.782 162.062C288.79 162.058 288.797 162.054 288.805 162.05L285.9 156.8ZM247.601 176.899V182.899H247.608L247.601 176.899ZM214.2 136.8L219.432 133.863C219.427 133.854 219.422 133.845 219.417 133.836L214.2 136.8ZM207.9 132L207.9 126H207.9V132ZM200.4 139.3L205.656 142.194C205.662 142.183 205.668 142.173 205.674 142.162L200.4 139.3ZM137.601 202.1L140.577 207.309C140.596 207.298 140.615 207.287 140.634 207.276L137.601 202.1ZM137.101 216.899L140.178 211.749C140.173 211.746 140.169 211.743 140.164 211.74L137.101 216.899ZM200.3 280.6L195.108 283.607C195.111 283.612 195.114 283.617 195.117 283.623L200.3 280.6ZM208.101 288.1L208.101 282.1C208.038 282.1 207.976 282.101 207.913 282.103L208.101 288.1ZM216.2 280.1L221.363 283.157C221.37 283.144 221.378 283.131 221.385 283.119L216.2 280.1ZM257.4 233L253.584 228.37C253.578 228.375 253.573 228.379 253.567 228.384L257.4 233ZM385.3 183.699L384.827 177.718C384.815 177.719 384.803 177.72 384.792 177.721L385.3 183.699ZM407.5 185.6L403.514 190.084C403.526 190.095 403.537 190.105 403.549 190.115L407.5 185.6ZM410.7 188.399L416.699 188.307C416.673 186.609 415.929 185.002 414.651 183.884L410.7 188.399ZM411 207.899L405.001 207.992L405.001 208.006L411 207.899ZM391.101 237.699L390.801 231.707L390.797 231.707L391.101 237.699ZM316.7 257.399L319.44 262.738L319.442 262.736L316.7 257.399ZM281.3 283.199L277.075 278.939C277.064 278.95 277.053 278.96 277.043 278.971L281.3 283.199ZM249.2 332.6L243.618 330.4L243.614 330.411L249.2 332.6ZM236.5 397.199L230.5 397.199V397.199H236.5ZM231.5 412.6V418.6C232.739 418.6 233.948 418.216 234.96 417.501L231.5 412.6ZM231.4 412.6V406.6C230.12 406.6 228.872 407.009 227.841 407.769L231.4 412.6ZM208.101 414.199V420.199V420.199V414.199ZM179.8 393.6L173.818 394.065L173.818 394.07L179.8 393.6ZM150.3 301L155.28 297.654C155.274 297.644 155.268 297.635 155.261 297.626L150.3 301ZM117.5 267.699L114.016 272.584L114.021 272.588L117.5 267.699ZM26.9004 237.899L26.5743 243.891C26.5798 243.891 26.5853 243.891 26.5908 243.891L26.9004 237.899ZM8.60059 233.899L12.8432 229.657L12.8424 229.656L8.60059 233.899ZM6 231.3H0C0 232.891 0.632451 234.418 1.75816 235.543L6 231.3ZM6 189L1.83212 184.684C0.661267 185.815 0 187.372 0 189H6ZM8.90039 186.199L4.81772 181.802C4.78906 181.829 4.76065 181.856 4.73251 181.883L8.90039 186.199ZM23.2998 182.6L22.8746 176.615C22.8672 176.615 22.8598 176.616 22.8525 176.616L23.2998 182.6ZM118.3 152L121.611 157.004C121.62 156.997 121.63 156.991 121.639 156.985L118.3 152ZM152.3 117.5L157.278 120.849C157.284 120.841 157.29 120.832 157.295 120.823L152.3 117.5ZM179.8 27.5L185.787 27.8969C185.788 27.8798 185.789 27.8627 185.79 27.8456L179.8 27.5ZM186.2 7.19922L188.692 12.6573C188.756 12.6281 188.82 12.5976 188.883 12.5661L186.2 7.19922ZM340 361.899L345.427 364.457C345.432 364.448 345.436 364.439 345.441 364.429L340 361.899ZM380.3 340.399L381.82 334.595L381.819 334.595L380.3 340.399ZM407.7 363.199L413.142 360.673C413.132 360.651 413.122 360.629 413.111 360.607L407.7 363.199ZM410.7 376.6L404.701 376.496C404.701 376.506 404.701 376.515 404.701 376.525L410.7 376.6ZM384.3 412.3L382.305 406.641C379.548 407.613 377.893 410.43 378.386 413.312C378.879 416.193 381.377 418.3 384.3 418.3V412.3ZM384.4 412.3L386.38 417.964C389.142 416.999 390.805 414.181 390.316 411.296C389.826 408.411 387.327 406.3 384.4 406.3V412.3ZM338 386.399L343.735 384.637C343.734 384.632 343.732 384.626 343.73 384.621L338 386.399ZM228.8 6L224.558 10.2433L227.859 13.5431L232.101 9.2998L236.343 5.05654L233.042 1.75673L228.8 6ZM232.101 9.2998L227.858 13.5424C228.493 14.1771 228.84 14.5673 229.049 14.8382C229.145 14.9623 229.195 15.0395 229.218 15.0792C229.24 15.1157 229.246 15.1302 229.246 15.1316C229.248 15.1355 229.4 15.446 229.4 17.3994L235.4 17.3994L241.4 17.3994C241.4 15.2531 241.303 12.9136 240.355 10.5927C239.397 8.24969 237.824 6.53835 236.343 5.0572L232.101 9.2998ZM235.4 17.3994H229.4C229.4 33.9884 234.418 63.5286 239.808 79.6972L245.5 77.7998L251.192 75.9024C246.182 60.871 241.4 32.6104 241.4 17.3994H235.4ZM245.5 77.7998L239.816 79.7228C249.121 107.223 259.816 124.282 280.797 145.88L285.101 141.699L289.404 137.519C269.585 117.117 259.879 101.576 251.184 75.8768L245.5 77.7998ZM285.101 141.699L280.837 145.921C283.51 148.62 285.231 150.339 286.351 151.636C286.897 152.268 287.112 152.59 287.173 152.695C287.24 152.81 286.936 152.351 286.895 151.487C286.845 150.451 287.2 149.581 287.571 149.05C287.842 148.66 288.02 148.596 287.672 148.848C287.355 149.078 286.846 149.398 286.01 149.876C285.176 150.352 284.223 150.871 282.996 151.55L285.9 156.8L288.805 162.05C290.915 160.883 293.154 159.694 294.707 158.57C296.169 157.511 299.081 155.083 298.881 150.912C298.796 149.136 298.14 147.682 297.544 146.658C296.942 145.623 296.181 144.659 295.435 143.794C293.97 142.097 291.841 139.979 289.364 137.477L285.101 141.699ZM285.9 156.8L283.018 151.537C270.425 158.433 261.165 163.437 254.927 166.711C251.8 168.352 249.482 169.532 247.902 170.293C247.104 170.678 246.566 170.921 246.24 171.055C246.071 171.125 246.04 171.132 246.103 171.112C246.135 171.101 246.256 171.063 246.436 171.023C246.568 170.994 247.003 170.9 247.593 170.899L247.601 176.899L247.608 182.899C248.701 182.898 249.602 182.592 249.768 182.538C250.141 182.419 250.505 182.277 250.819 182.147C251.459 181.883 252.236 181.526 253.111 181.104C254.879 180.252 257.342 178.995 260.503 177.336C266.84 174.01 276.178 168.965 288.782 162.062L285.9 156.8ZM247.601 176.899V170.899C248.605 170.899 249.313 171.174 249.531 171.263C249.811 171.378 249.968 171.478 249.972 171.481C249.979 171.485 249.813 171.376 249.437 171.059C248.708 170.444 247.662 169.445 246.331 168.068C243.697 165.342 240.318 161.519 236.783 157.281C229.618 148.693 222.337 139.037 219.432 133.863L214.2 136.8L208.968 139.737C212.464 145.963 220.383 156.356 227.568 164.968C231.207 169.33 234.791 173.394 237.701 176.406C239.143 177.898 240.513 179.23 241.696 180.229C242.276 180.719 242.94 181.238 243.631 181.668C243.977 181.884 244.44 182.146 244.987 182.37C245.472 182.568 246.409 182.899 247.601 182.899V176.899ZM214.2 136.8L219.417 133.836C218.796 132.743 218.184 131.69 217.574 130.8C216.963 129.909 216.143 128.861 214.995 127.984C212.373 125.979 209.497 126 207.9 126L207.9 132L207.9 138C208.265 138 208.501 138.006 208.666 138.016C208.829 138.025 208.85 138.035 208.787 138.022C208.712 138.008 208.539 137.967 208.315 137.871C208.083 137.771 207.875 137.646 207.706 137.516C207.408 137.288 207.388 137.165 207.677 137.587C207.967 138.01 208.354 138.657 208.983 139.764L214.2 136.8ZM207.9 132V126C207.12 126 205.773 125.995 204.411 126.326C202.752 126.729 201.333 127.539 200.113 128.727C199.067 129.747 198.25 130.971 197.571 132.089C196.865 133.249 196.063 134.714 195.127 136.437L200.4 139.3L205.674 142.162C206.638 140.386 207.298 139.188 207.824 138.323C208.376 137.416 208.559 137.253 208.487 137.322C208.243 137.56 207.774 137.858 207.246 137.986C207.015 138.043 206.981 138 207.9 138V132ZM200.4 139.3L195.145 136.406C183.221 158.06 158.136 183.11 134.567 196.923L137.601 202.1L140.634 207.276C165.865 192.489 192.58 165.94 205.656 142.194L200.4 139.3ZM137.601 202.1L134.624 196.89C131.416 198.723 128.676 200.298 126.959 201.993C125.881 203.058 124.99 204.345 124.48 205.966C124.024 207.414 124 208.767 124 209.6H130H136C136 208.983 136.051 209.173 135.927 209.568C135.852 209.804 135.743 210.037 135.612 210.243C135.488 210.436 135.391 210.532 135.392 210.531C135.447 210.477 135.751 210.207 136.687 209.609C137.59 209.033 138.823 208.312 140.577 207.309L137.601 202.1ZM130 209.6H124C124 210.476 124.041 211.793 124.494 213.213C124.99 214.767 125.835 216.018 126.855 217.064C128.508 218.758 131.097 220.313 134.037 222.059L137.101 216.899L140.164 211.74C138.564 210.791 137.441 210.105 136.619 209.557C135.769 208.991 135.493 208.734 135.446 208.685C135.445 208.685 135.531 208.773 135.64 208.947C135.756 209.132 135.856 209.344 135.925 209.562C136.047 209.943 136 210.123 136 209.6H130ZM137.101 216.899L134.023 222.05C157.272 235.941 181.733 260.514 195.108 283.607L200.3 280.6L205.492 277.593C191.067 252.686 165.129 226.657 140.178 211.749L137.101 216.899ZM200.3 280.6L195.117 283.623C196.156 285.404 197.037 286.898 197.803 288.082C198.541 289.224 199.387 290.42 200.413 291.408C201.589 292.541 202.985 293.39 204.691 293.809C206.129 294.163 207.504 294.121 208.288 294.097L208.101 288.1L207.913 282.103C207.097 282.128 207.222 282.074 207.554 282.156C208.153 282.303 208.587 282.621 208.738 282.766C208.738 282.766 208.496 282.519 207.878 281.564C207.288 280.651 206.544 279.396 205.482 277.576L200.3 280.6ZM208.101 288.1L208.101 294.1C208.885 294.1 210.263 294.099 211.702 293.696C213.387 293.224 214.742 292.343 215.88 291.217C216.884 290.225 217.739 289.02 218.514 287.83C219.316 286.599 220.249 285.038 221.363 283.157L216.2 280.1L211.037 277.043C209.902 278.961 209.097 280.3 208.458 281.282C208.145 281.763 207.907 282.102 207.724 282.343C207.635 282.461 207.567 282.545 207.518 282.602C207.494 282.63 207.476 282.65 207.463 282.663C207.451 282.676 207.445 282.682 207.445 282.682C207.522 282.606 207.895 282.3 208.464 282.141C208.788 282.05 208.916 282.1 208.101 282.1L208.101 288.1ZM216.2 280.1L221.385 283.119C230.17 268.031 244.572 251.452 261.234 237.616L257.4 233L253.567 228.384C236.029 242.948 220.63 260.568 211.015 277.08L216.2 280.1ZM257.4 233L261.217 237.63C293.759 210.802 337.461 193.788 385.808 189.678L385.3 183.699L384.792 177.721C334.339 182.01 288.241 199.798 253.584 228.37L257.4 233ZM385.3 183.699L385.773 189.681C394.892 188.959 398.908 188.706 401.17 188.902C402.09 188.982 402.298 189.112 402.299 189.113C402.402 189.165 402.626 189.295 403.514 190.084L407.5 185.6L411.486 181.115C410.574 180.304 409.335 179.222 407.704 178.399C405.97 177.524 404.173 177.117 402.205 176.947C398.692 176.643 393.408 177.039 384.827 177.718L385.3 183.699ZM407.5 185.6L403.549 190.115L406.749 192.915L410.7 188.399L414.651 183.884L411.451 181.084L407.5 185.6ZM410.7 188.399L404.701 188.492L405.001 207.992L411 207.899L416.999 207.807L416.699 188.307L410.7 188.399ZM411 207.899L405.001 208.006C405.127 215.139 405.186 220.175 404.928 223.897C404.662 227.743 404.098 229.144 403.748 229.667C403.649 229.815 403.403 230.284 401.404 230.732C399.168 231.234 395.96 231.449 390.801 231.707L391.101 237.699L391.4 243.692C396.241 243.45 400.583 243.215 404.031 242.441C407.716 241.615 411.289 239.983 413.727 236.331C415.915 233.055 416.607 228.955 416.9 224.726C417.201 220.374 417.123 214.76 416.999 207.793L411 207.899ZM391.101 237.699L390.797 231.707C364.272 233.049 336.537 240.462 313.958 252.063L316.7 257.399L319.442 262.736C340.463 251.937 366.529 244.95 391.404 243.692L391.101 237.699ZM316.7 257.399L313.961 252.061C298.188 260.155 289.591 266.526 277.075 278.939L281.3 283.199L285.525 287.459C297.208 275.872 304.812 270.244 319.44 262.738L316.7 257.399ZM281.3 283.199L277.043 278.971C261.658 294.46 251.912 309.353 243.618 330.4L249.2 332.6L254.782 334.799C262.488 315.246 271.342 301.739 285.557 287.428L281.3 283.199ZM249.2 332.6L243.614 330.411C236.665 348.146 230.5 379.086 230.5 397.199L236.5 397.199L242.5 397.199C242.5 380.712 248.336 351.253 254.787 334.788L249.2 332.6ZM236.5 397.199H230.5C230.5 405.051 228.837 407.135 228.04 407.698L231.5 412.6L234.96 417.501C240.963 413.264 242.5 405.547 242.5 397.199H236.5ZM231.5 412.6V406.6H231.4V412.6V418.6H231.5V412.6ZM231.4 412.6L227.841 407.769C228.407 407.352 228.636 407.717 225.348 407.938C222.242 408.146 217.117 408.199 208.101 408.199V414.199V420.199C216.984 420.199 222.558 420.152 226.152 419.911C229.565 419.682 232.494 419.247 234.96 417.43L231.4 412.6ZM208.101 414.199V408.199C200.957 408.199 196.107 408.258 192.529 408.03C188.789 407.792 187.833 407.277 187.65 407.144C187.635 407.133 187.635 407.132 187.631 407.127C187.624 407.119 187.581 407.066 187.513 406.929C187.359 406.621 187.135 406.008 186.912 404.823C186.437 402.293 186.228 398.801 185.781 393.129L179.8 393.6L173.818 394.07C174.222 399.199 174.488 403.681 175.119 407.039C175.774 410.524 177.058 414.284 180.601 416.855C183.792 419.172 187.849 419.757 191.766 420.006C195.844 420.266 201.294 420.199 208.101 420.199V414.199ZM179.8 393.6L185.782 393.135C182.819 355.028 172.97 323.981 155.28 297.654L150.3 301L145.32 304.346C161.63 328.619 170.981 357.571 173.818 394.065L179.8 393.6ZM150.3 301L155.261 297.626C148.05 287.021 131.943 270.612 120.979 262.81L117.5 267.699L114.021 272.588C123.857 279.586 138.95 294.979 145.338 304.374L150.3 301ZM117.5 267.699L120.984 262.814C96.2366 245.168 61.1004 233.659 27.21 231.907L26.9004 237.899L26.5908 243.891C58.5 245.54 91.3635 256.431 114.016 272.584L117.5 267.699ZM26.9004 237.899L27.2264 231.908C19.5927 231.493 16.4297 231.281 14.679 230.9C14.3289 230.823 14.1437 230.76 14.0578 230.727C13.9856 230.699 13.9608 230.683 13.944 230.672C13.8436 230.607 13.6464 230.46 12.8432 229.657L8.60059 233.899L4.35795 238.142C5.10476 238.889 6.13252 239.916 7.4571 240.767C8.90579 241.698 10.4249 242.254 12.122 242.624C15.0713 243.267 19.5082 243.506 26.5743 243.891L26.9004 237.899ZM8.60059 233.899L12.8424 229.656L10.2418 227.056L6 231.3L1.75816 235.543L4.35874 238.143L8.60059 233.899ZM6 231.3H12V189H6H0V231.3H6ZM6 189L10.1679 193.316L13.0683 190.515L8.90039 186.199L4.73251 181.883L1.83212 184.684L6 189ZM8.90039 186.199L12.9831 190.596C13.6339 189.992 13.8561 189.833 13.9698 189.763C14.0037 189.743 14.1202 189.663 14.5839 189.548C15.8818 189.225 18.1623 189 23.7472 188.583L23.2998 182.6L22.8525 176.616C17.738 176.999 14.2187 177.274 11.6917 177.901C8.39721 178.72 6.59002 180.157 4.81772 181.802L8.90039 186.199ZM23.2998 182.6L23.725 188.585C61.2213 185.921 93.7441 175.443 121.611 157.004L118.3 152L114.989 146.996C89.0557 164.156 58.5779 174.078 22.8746 176.615L23.2998 182.6ZM118.3 152L121.639 156.985C127.277 153.208 134.254 147.008 140.663 140.497C147.088 133.97 153.292 126.774 157.278 120.849L152.3 117.5L147.322 114.151C143.907 119.226 138.261 125.83 132.111 132.079C125.945 138.342 119.622 143.892 114.96 147.015L118.3 152ZM152.3 117.5L157.295 120.823C173.904 95.8587 183.334 64.8841 185.787 27.8969L179.8 27.5L173.813 27.1031C171.465 62.5155 162.496 91.3415 147.304 114.177L152.3 117.5ZM179.8 27.5L185.79 27.8456C186.252 19.839 186.692 16.1082 187.329 14.1095C187.462 13.6928 187.573 13.4591 187.639 13.34C187.699 13.2327 187.73 13.2024 187.732 13.2006C187.736 13.196 187.776 13.1533 187.906 13.0689C188.049 12.9758 188.287 12.8423 188.692 12.6573L186.2 7.19922L183.708 1.74109C182.224 2.41893 180.532 3.35946 179.041 4.92622C177.516 6.52724 176.552 8.40689 175.896 10.4647C174.708 14.1915 174.248 19.561 173.81 27.1544L179.8 27.5ZM186.2 7.19922L188.883 12.5661C188.253 12.8809 188.069 12.7861 189.317 12.625C190.264 12.5027 191.63 12.3876 193.454 12.2913C197.087 12.0996 202.191 12 208.7 12V6V0C202.11 0 196.764 0.0999937 192.822 0.307961C190.859 0.411519 189.156 0.546202 187.78 0.723773C186.707 0.862442 184.947 1.1176 183.518 1.83235L186.2 7.19922ZM208.7 6V12H228.8V6V0H208.7V6ZM340 361.899L345.441 364.429C351.748 350.865 367.184 343.169 378.781 346.204L380.3 340.399L381.819 334.595C363.615 329.831 342.852 341.535 334.559 359.37L340 361.899ZM380.3 340.399L378.78 346.204C389.637 349.047 397.334 355.447 402.289 365.791L407.7 363.199L413.111 360.607C406.666 347.151 396.163 338.352 381.82 334.595L380.3 340.399ZM407.7 363.199L402.258 365.726C403.536 368.479 404.075 369.891 404.362 371.154C404.638 372.369 404.749 373.746 404.701 376.496L410.7 376.6L416.699 376.703C416.752 373.653 416.662 371.13 416.064 368.495C415.476 365.908 414.464 363.519 413.142 360.673L407.7 363.199ZM410.7 376.6L404.701 376.525C404.534 389.855 395.679 401.926 382.305 406.641L384.3 412.3L386.295 417.958C404.121 411.674 416.466 395.345 416.7 376.675L410.7 376.6ZM384.3 412.3V418.3H384.4V412.3V406.3H384.3V412.3ZM384.4 412.3L382.421 406.636C367.458 411.865 349.173 402.33 343.735 384.637L338 386.399L332.265 388.162C339.427 411.468 364.143 425.735 386.38 417.964L384.4 412.3ZM338 386.399L343.73 384.621C341.506 377.453 341.921 371.898 345.427 364.457L340 361.899L334.573 359.342C329.879 369.301 329.094 377.946 332.27 388.178L338 386.399Z" fill="#373737" mask="url(#path-1-outside-1_27_1671)"/>
</svg>
